<svg width="16" height="32" viewBox="0 0 16 32" fill="none" xmlns="http://www.w3.org/2000/svg">
<mask id="mask0" mask-type="alpha" maskUnits="userSpaceOnUse" x="0" y="0" width="16" height="32">
<path fill-rule="evenodd" clip-rule="evenodd" d="M0.0666504 0.0766602H15.934V31.8216H0.0666504V0.0766602Z" fill="white"/>
</mask>
<g mask="url(#mask0)">
<path fill-rule="evenodd" clip-rule="evenodd" d="M15.3368 0.0833594L11.5309 0.0766602C7.2553 0.0766602 4.49194 3.14324 4.49194 7.8891V11.4911H0.66536C0.335037 11.4911 0.0666504 11.7814 0.0666504 12.1387V17.3579C0.0666504 17.7152 0.335037 18.005 0.66536 18.005H4.49194V31.174C4.49194 31.5319 4.75981 31.8216 5.09013 31.8216H10.0827C10.4135 31.8216 10.6814 31.5319 10.6814 31.174V18.005H15.1552C15.4865 18.005 15.7544 17.7152 15.7544 17.3579L15.7559 12.1387C15.7559 11.9673 15.6925 11.8026 15.581 11.6809C15.4685 11.5597 15.3157 11.4911 15.1567 11.4911H10.6814V8.43788C10.6814 6.97019 11.0045 6.2249 12.7722 6.2249L15.3358 6.22434C15.6667 6.22434 15.934 5.93404 15.934 5.57674V0.730953C15.934 0.37366 15.6672 0.0839177 15.3368 0.0833594Z" fill="white"/>
</g>
</svg>
