<svg width="24" height="24" viewBox="0 0 24 24" fill="none" xmlns="http://www.w3.org/2000/svg">
<path fill-rule="evenodd" clip-rule="evenodd" d="M11.9998 0C8.74123 0 8.33208 0.0136875 7.05232 0.0723481C5.77551 0.13052 4.90295 0.333388 4.13989 0.630112C3.3387 0.931237 2.61376 1.40345 2.01397 2.01401C1.40343 2.61333 0.931218 3.33877 0.629611 4.13948C0.333381 4.90305 0.130517 5.77513 0.0728354 7.05247C0.0136872 8.33225 0 8.74092 0 12C0 15.2591 0.0136872 15.6678 0.0728354 16.9475C0.131006 18.2249 0.33387 19.097 0.6301 19.8605C0.931218 20.6612 1.40391 21.3867 2.01446 21.986C2.61376 22.5961 3.33919 23.0688 4.13989 23.3699C4.90295 23.6666 5.77551 23.8695 7.05281 23.9277C8.33257 23.9858 8.74123 24 12.0002 24C15.2588 24 15.6679 23.9858 16.9472 23.9277C18.2245 23.8695 19.0971 23.6666 19.8601 23.3699C21.4723 22.7466 22.7462 21.4722 23.3699 19.8605C23.6661 19.097 23.869 18.2249 23.9272 16.9475C23.9863 15.6678 24 15.2591 24 12C24 8.74092 23.9863 8.33225 23.9272 7.05247C23.869 5.77513 23.6661 4.90305 23.3699 4.13948C23.0688 3.33877 22.5961 2.61333 21.9855 2.01401C21.3862 1.40345 20.6608 0.931237 19.8601 0.629624C19.0971 0.333388 18.2245 0.13052 16.9472 0.0723481C15.6674 0.0136875 15.2588 0 11.9998 0ZM11.9998 2.16213C15.204 2.16213 15.5834 2.17435 16.8489 2.23204C18.0187 2.28581 18.6542 2.48085 19.0775 2.6451C19.5981 2.83771 20.0698 3.1447 20.457 3.5431C20.8554 3.93026 21.1619 4.4015 21.3545 4.9226C21.5187 5.34545 21.7142 5.98094 21.7675 7.15072C21.8257 8.41633 21.8374 8.79567 21.8374 12C21.8374 15.2043 21.8257 15.5837 21.7675 16.8493C21.7142 18.0191 21.5187 18.6546 21.3545 19.0774C20.9512 20.124 20.1236 20.9511 19.0775 21.3549C18.6542 21.5191 18.0187 21.7147 16.8489 21.768C15.5838 21.8256 15.2045 21.8379 11.9998 21.8379C8.79549 21.8379 8.41616 21.8256 7.15058 21.768C5.98081 21.7147 5.34583 21.5191 4.9225 21.3549C4.40141 21.1628 3.92969 20.8558 3.54303 20.4574C3.14463 20.0702 2.83765 19.5985 2.64505 19.0774C2.4808 18.6546 2.28527 18.0191 2.23248 16.8493C2.17431 15.5837 2.16209 15.2043 2.16209 12C2.16209 8.79567 2.17431 8.41633 2.23248 7.15072C2.28576 5.98094 2.4808 5.34593 2.64505 4.9226C2.83765 4.4015 3.14463 3.93026 3.54303 3.5431C3.93018 3.14421 4.40141 2.83771 4.9225 2.6451C5.34583 2.48085 5.98081 2.28532 7.15107 2.23204C8.41616 2.17435 8.79549 2.16213 11.9998 2.16213Z" fill="white"/>
<path fill-rule="evenodd" clip-rule="evenodd" d="M12 16.5438C9.49044 16.5438 7.45569 14.5092 7.45569 11.9997C7.45569 9.49026 9.49044 7.45615 12 7.45615C14.5101 7.45615 16.5443 9.49026 16.5443 11.9997C16.5443 14.5097 14.5101 16.5438 12 16.5438ZM12 5C8.13376 5 5 8.13363 5 11.9997C5 15.8658 8.13376 19 12 19C15.8662 19 19 15.8658 19 11.9997C19 8.13363 15.8662 5 12 5Z" fill="white"/>
<path fill-rule="evenodd" clip-rule="evenodd" d="M17.4997 4C18.3283 4 19 4.6717 19 5.50025C19 6.32881 18.3283 7 17.4997 7C16.6712 7 16 6.32881 16 5.50025C16 4.6717 16.6712 4 17.4997 4Z" fill="white"/>
</svg>
