<svg width="29" height="26" viewBox="0 0 29 26" fill="none" xmlns="http://www.w3.org/2000/svg">
<path fill-rule="evenodd" clip-rule="evenodd" d="M0.369706 26H6.58503V8.4565H0.369706V26ZM3.51839 0C1.39117 0 0 1.30899 0 3.03023C0 4.71457 1.35128 6.0631 3.43579 6.0631H3.47737C5.6456 6.0631 6.99407 4.71457 6.99407 3.03023C6.95306 1.30899 5.6456 0 3.51839 0ZM29 15.9409V26H22.7841V16.6146C22.7841 14.2565 21.8846 12.6476 19.6354 12.6476C17.9178 12.6476 16.8958 13.732 16.4463 14.7811C16.2822 15.1559 16.2401 15.6778 16.2401 16.2029V26H10.022C10.022 26 10.1062 10.1039 10.022 8.45703H16.2395V10.9437C16.2266 10.9622 16.2103 10.9822 16.198 11.0001H16.2395V10.9437C17.0649 9.74967 18.5404 8.04477 21.8419 8.04477C25.9334 8.04477 29 10.552 29 15.9409Z" fill="white"/>
</svg>
