<svg width="30" height="23" viewBox="0 0 30 23" fill="none" xmlns="http://www.w3.org/2000/svg">
<path fill-rule="evenodd" clip-rule="evenodd" d="M30 2.72247C28.896 3.18425 27.7097 3.49665 26.4652 3.6366C27.7353 2.91798 28.7115 1.78056 29.171 0.424567C27.9814 1.08972 26.6646 1.57299 25.2628 1.8335C24.1399 0.704991 22.5403 0 20.7701 0C17.3714 0 14.6155 2.59929 14.6155 5.80608C14.6155 6.26105 14.6694 6.70449 14.7744 7.12906C9.65941 6.8869 5.12446 4.57536 2.08857 1.06247C1.55906 1.91999 1.25514 2.91746 1.25514 3.98149C1.25514 5.99635 2.34193 7.77325 3.99322 8.81474C2.98422 8.78434 2.03523 8.52331 1.20569 8.08826C1.20513 8.11237 1.20513 8.13701 1.20513 8.16112C1.20513 10.9748 3.32648 13.3209 6.14235 13.855C5.62563 13.9871 5.08168 14.0584 4.52106 14.0584C4.12435 14.0584 3.73819 14.0217 3.3626 13.9541C4.14602 16.2609 6.41905 17.9398 9.11212 17.9864C7.00578 19.5437 4.35215 20.472 1.46794 20.472C0.971219 20.472 0.481165 20.4447 0 20.3907C2.72364 22.0382 5.959 23 9.43438 23C20.7556 23 26.9463 14.1522 26.9463 6.4791C26.9463 6.22751 26.9402 5.97696 26.9285 5.72799C28.1315 4.90925 29.1749 3.88662 30 2.72247Z" fill="white"/>
</svg>
